<svg width="64" height="64" viewBox="0 0 64 64" fill="none" xmlns="http://www.w3.org/2000/svg">
<rect width="64" height="64" fill="#1842B6"/>
<path d="M29.1271 53.0696V40.0504H31.3651C32.1165 39.4515 32.8189 38.6075 33.4723 37.5185C34.1257 36.4295 34.6811 34.9375 35.1385 33.0426C35.5959 31.1477 35.9117 28.6974 36.0859 25.6918L36.968 11.5455H58.3509V40.0504H62.0753V53.0369H56.2599V45H34.9425V53.0696H29.1271ZM38.4219 40.0504H52.5355V16.6257H42.424L41.9013 25.6918C41.7597 27.9678 41.531 30.0043 41.2152 31.8011C40.8994 33.598 40.5019 35.1825 40.0227 36.5547C39.5436 37.916 39.0099 39.0812 38.4219 40.0504Z" fill="#26D48C"/>
<path d="M3.29972 45V11.5455H24.8132V16.6257H9.36009V24.4666H15.8125C18.3717 24.4666 20.5661 24.8859 22.3956 25.7244C24.236 26.5521 25.6463 27.7228 26.6264 29.2365C27.6065 30.7502 28.0966 32.5308 28.0966 34.5781C28.0966 36.6364 27.6065 38.4496 26.6264 40.0178C25.6463 41.575 24.236 42.7947 22.3956 43.6768C20.5661 44.5589 18.3717 45 15.8125 45H3.29972ZM9.36009 40.0341H15.8125C17.1629 40.0341 18.3063 39.7782 19.2429 39.2663C20.1795 38.7545 20.8873 38.0793 21.3665 37.2408C21.8565 36.4022 22.1016 35.4929 22.1016 34.5128C22.1016 33.0971 21.5571 31.8937 20.468 30.9027C19.3899 29.9008 17.8381 29.3999 15.8125 29.3999H9.36009V40.0341Z" fill="#F8F8F9"/>
</svg>
